Coordinates
version=1
nRows=4
nColumns=107
inDegrees=yes

Units are S.I. units (second, meters, Newtons, ...)
If the header above contains a line with 'inDegrees', this indicates whether rotational values are in degrees (yes) or radians (no).

endheader
time	sternoclavicular_r2	sternoclavicular_r3	unrotscap_r3	unrotscap_r2	acromioclavicular_r2	acromioclavicular_r3	acromioclavicular_r1	unrothum_r1	unrothum_r3	unrothum_r2	elv_angle	shoulder_elv	shoulder1_r2	shoulder_rot	elbow_flexion	pro_sup	deviation	flexion	proximal_distal_r1	proximal_distal_r3	cmc_flexion	cmc_abduction	mp_flexion	ip_flexion	mcp2_flexion	mcp2_abduction	pm2_flexion	md2_flexion	mcp3_flexion	mcp3_abduction	pm3_flexion	md3_flexion	mcp4_flexion	mcp4_abduction	pm4_flexion	md4_flexion	mcp5_flexion	mcp5_abduction	pm5_flexion	md5_flexion	bicpt_tx	bicpt_ty	bicpt_tz	bicpt2_tx	bicpt2_ty	bicpt2_tz	ptpt_tx	ptpt_ty	ptpt_tz	FCUpt_tx	FCUpt_ty	FCUpt_tz	EDCpt_tx	EDCpt_ty	EDCpt_tz	APLpt_tx	APLpt_ty	APLpt_tz	FPLpt_tx	FPLpt_ty	FPLpt_tz	FPLpt2_tx	FPLpt2_ty	FPLpt2_tz	PEC1pt2_tx	PEC1pt2_ty	PEC1pt2_tz	PEC1pt3_tx	PEC1pt3_ty	PEC1pt3_tz	PEC2pt2_tx	PEC2pt2_ty	PEC2pt2_tz	PEC2pt3_tx	PEC2pt3_ty	PEC2pt3_tz	PEC3pt2_tx	PEC3pt2_ty	PEC3pt2_tz	PEC3pt3_tx	PEC3pt3_ty	PEC3pt3_tz	DELT2pt2a_tx	DELT2pt2a_ty	DELT2pt2a_tz	DELT2pt2_tx	DELT2pt2_ty	DELT2pt2_tz	LAT1pt2_tx	LAT1pt2_ty	LAT1pt2_tz	LAT1pt3_tx	LAT1pt3_ty	LAT1pt3_tz	LAT2pt2_tx	LAT2pt2_ty	LAT2pt2_tz	LAT2pt3_tx	LAT2pt3_ty	LAT2pt3_tz	LAT3pt2_tx	LAT3pt2_ty	LAT3pt2_tz	LAT3pt3_tx	LAT3pt3_ty	LAT3pt3_tz
      0.00000000	     -0.32382695	      0.13715781	     -0.13715781	      0.32382695	     -0.06556837	      0.52990051	      0.23818663	     -0.23818663	     -0.52990051	      0.06556837	     98.71311519	     76.66890975	     -1.72286887	    -19.58011422	     27.06365896	     12.52857926	     -0.09571675	     -0.40069901	     -0.13739976	     -0.20034950	     17.84772975	     23.50187067	     18.29141815	      7.79776861	      3.02681957	     14.43832675	      3.69894615	    -40.34716319	    -33.04610704	      8.62930657	      4.68766048	      8.13979426	    -43.97918100	     -5.57420316	    -11.04862049	     16.16026350	    -57.33578506	    -14.59084186	    -14.63048466	      4.82199219	      0.00079518	     -0.03070191	     -0.00479964	      0.01565983	     -0.01755198	     -0.00987358	      0.00662428	     -0.06549859	     -0.00105924	      0.00513091	     -0.18395939	      0.00009276	     -0.00150343	      0.00037920	      0.00013913	      0.00027551	      0.00011020	      0.00055102	      0.00035265	      0.00105796	      0.00059510	      0.00001711	     -0.00026923	     -0.00032307	      0.00251304	      0.00881693	      0.00613352	     -0.00822062	      0.01984875	     -0.01882649	      0.00251304	      0.00881693	      0.00613352	      0.00055372	      0.01840055	     -0.00966881	      0.00396689	      0.00490298	      0.01601379	      0.00000000	      0.00786191	      0.00000000	     -0.00719836	     -0.03326582	     -0.00648297	      0.01353278	     -0.00041908	     -0.00315382	     -0.00089447	      0.01499304	     -0.00613352	      0.00247044	      0.02163769	     -0.01788943	     -0.00600574	      0.01299113	     -0.00549461	     -0.01252260	      0.02743046	     -0.03071018	     -0.02351182	      0.01452451	     -0.00736874	     -0.01558936	      0.03168984	     -0.03837708
      0.03333333	     -0.32457621	      0.13747516	     -0.13747516	      0.32457621	     -0.06572008	      0.53112657	      0.23873774	     -0.23873774	     -0.53112657	      0.06572008	     98.61911551	     76.84630266	     -1.72122827	    -19.06242760	     27.02711784	     12.53339224	     -0.08803567	     -0.36555999	     -0.12582032	     -0.18277999	     18.10260176	     23.46487858	     18.43235942	      5.66206645	      2.31417610	     14.43968739	      3.57095813	    -41.43828269	    -34.02874271	      8.48794885	      4.67072308	      9.56505005	    -43.99557900	     -5.66497609	    -12.07764890	     18.45483194	    -57.53305985	    -14.59133062	    -15.06730148	      4.87386272	      0.00079397	     -0.03069772	     -0.00479896	      0.01566016	     -0.01754205	     -0.00987327	      0.00662392	     -0.06549882	     -0.00105963	      0.00513135	     -0.18395933	      0.00009262	     -0.00150400	      0.00037935	      0.00013917	      0.00026211	      0.00010485	      0.00052423	      0.00033551	      0.00100652	      0.00056617	      0.00001649	     -0.00027051	     -0.00032461	      0.00251885	      0.00883733	      0.00614771	     -0.00823964	      0.01989467	     -0.01887005	      0.00251885	      0.00883733	      0.00614771	      0.00055500	      0.01844313	     -0.00969118	      0.00397357	      0.00491433	      0.01602996	      0.00000000	      0.00789860	      0.00000000	     -0.00721502	     -0.03334279	     -0.00651341	      0.01322935	     -0.00040332	     -0.00297971	     -0.00089654	      0.01502773	     -0.00614771	      0.00247616	      0.02168775	     -0.01793082	     -0.00601963	      0.01302119	     -0.00550732	     -0.01255157	      0.02749392	     -0.03078124	     -0.02356622	      0.01455812	     -0.00738579	     -0.01562543	      0.03176317	     -0.03846588
      0.06666667	     -0.32421797	      0.13732343	     -0.13732343	      0.32421797	     -0.06564754	      0.53054035	      0.23847424	     -0.23847424	     -0.53054035	      0.06564754	     98.66768421	     76.76148550	     -1.72207595	    -19.29070737	     27.01886860	     12.62709336	     -0.08925438	     -0.37819343	     -0.12765091	     -0.18909671	     17.70676474	     23.50405414	     19.36630583	      6.23819000	      3.29042451	     14.43536809	      3.62765930	    -41.84316462	    -33.12224075	      8.35690316	      4.61895126	      8.69078504	    -43.04320506	     -5.62975682	    -12.13334284	     17.85189694	    -57.47689623	    -14.59062148	    -14.65458504	      4.85868241	      0.00079370	     -0.03069678	     -0.00479881	      0.01566619	     -0.01753981	     -0.00986685	      0.00661700	     -0.06550329	     -0.00106718	      0.00514000	     -0.18395811	      0.00009003	     -0.00151525	      0.00038237	      0.00013989	      0.00026718	      0.00010687	      0.00053436	      0.00034199	      0.00102597	      0.00057711	      0.00001746	     -0.00026851	     -0.00032222	      0.00251607	      0.00882758	      0.00614092	     -0.00823054	      0.01987271	     -0.01884923	      0.00251607	      0.00882758	      0.00614092	      0.00055439	      0.01842277	     -0.00968048	      0.00397038	      0.00490890	      0.01602224	      0.00000000	      0.00788105	      0.00000000	     -0.00720706	     -0.03330598	     -0.00649885	      0.01336360	     -0.00041025	     -0.00305595	     -0.00089555	      0.01501115	     -0.00614092	      0.00247343	      0.02166382	     -0.01791103	     -0.00601299	      0.01300682	     -0.00550124	     -0.01253772	      0.02746358	     -0.03074727	     -0.02354021	      0.01454205	     -0.00737764	     -0.01560818	      0.03172811	     -0.03842342
      0.10000000	     -0.32413893	      0.13728995	     -0.13728995	      0.32413893	     -0.06563154	      0.53041101	      0.23841610	     -0.23841610	     -0.53041101	      0.06563154	     98.66427793	     76.74277218	     -1.72201650	    -19.28668982	     27.00994892	     12.62777400	     -0.08927473	     -0.37814853	     -0.12768185	     -0.18907426	     17.70694779	     23.50435848	     19.36636624	      6.23832789	      3.29215193	     14.43517738	      3.62793684	    -41.84285984	    -33.12088103	      8.35617822	      4.61951233	      8.69077917	    -43.03904016	     -5.62965127	    -12.13142298	     17.85180089	    -57.47714004	    -14.59031553	    -14.65444820	      4.85865109	      0.00079341	     -0.03069575	     -0.00479864	      0.01566623	     -0.01753739	     -0.00986681	      0.00661695	     -0.06550333	     -0.00106723	      0.00514006	     -0.18395810	      0.00009001	     -0.00151533	      0.00038239	      0.00013989	      0.00026715	      0.00010686	      0.00053429	      0.00034195	      0.00102584	      0.00057704	      0.00001746	     -0.00026849	     -0.00032218	      0.00251546	      0.00882543	      0.00613943	     -0.00822854	      0.01986787	     -0.01884463	      0.00251546	      0.00882543	      0.00613943	      0.00055425	      0.01841828	     -0.00967812	      0.00396968	      0.00490771	      0.01602053	      0.00000000	      0.00787718	      0.00000000	     -0.00720530	     -0.03329786	     -0.00649564	      0.01336123	     -0.00041013	     -0.00305461	     -0.00089533	      0.01500749	     -0.00613943	      0.00247282	      0.02165853	     -0.01790666	     -0.00601152	      0.01300365	     -0.00549990	     -0.01253466	      0.02745688	     -0.03073977	     -0.02353447	      0.01453850	     -0.00737584	     -0.01560438	      0.03172037	     -0.03841405
